<svg display="block" role="presentation" viewBox="0 0 18 18" xmlns="http://www.w3.org/2000/svg"><path d="M 11.161 0 L 5.396 0 C 2.416 0 0 2.351 0 5.25 C 0 6.365 0.358 7.4 0.967 8.25 C 1.386 8.989 2.89 9.982 3.681 10.441 C 3.731 10.47 3.756 10.485 3.784 10.492 C 3.813 10.5 3.843 10.5 3.902 10.5 L 9.604 10.5 C 12.584 10.5 15 8.149 15 5.25 C 15 4.135 14.642 3.1 14.033 2.25 C 13.292 1.101 11.974 0.319 11.332 0.035 C 11.294 0.018 11.275 0.01 11.252 0.005 C 11.229 0 11.206 0 11.161 0 Z" fill="rgb(246, 119, 253)" height="10.500001875000002px" id="GT0kNUviM" transform="translate(1.5 3.75)" width="14.999990625000002px"/><path d="M 0 7.312 C 0 4.088 2.682 1.5 5.958 1.5 L 11.511 1.5 L 10.961 0.965 C 10.739 0.749 10.734 0.392 10.95 0.17 C 11.167 -0.053 11.523 -0.057 11.746 0.16 L 12.498 0.891 C 12.652 1.041 12.814 1.197 12.921 1.335 C 13.013 1.454 13.229 1.766 13.069 2.144 C 12.911 2.513 12.545 2.582 12.398 2.602 C 12.224 2.626 11.998 2.625 11.779 2.625 L 5.958 2.625 C 3.274 2.625 1.125 4.738 1.125 7.312 C 1.125 8.305 1.443 9.226 1.987 9.985 C 2.168 10.237 2.11 10.589 1.857 10.77 C 1.605 10.951 1.253 10.892 1.072 10.64 C 0.397 9.698 0 8.55 0 7.312 Z" fill="rgb(20, 27, 52)" height="10.874825698391506px" id="T6q6bWtmh" transform="translate(0.938 1.688)" width="13.126287362398536px"/><path d="M 12.001 3.562 C 12.001 2.569 11.683 1.649 11.139 0.89 C 10.959 0.637 11.017 0.286 11.269 0.105 C 11.521 -0.076 11.873 -0.018 12.054 0.235 C 12.729 1.177 13.126 2.325 13.126 3.562 C 13.126 6.787 10.444 9.375 7.168 9.375 L 1.616 9.375 L 2.165 9.91 C 2.387 10.126 2.392 10.482 2.176 10.705 C 1.959 10.928 1.603 10.932 1.38 10.715 L 0.628 9.983 C 0.474 9.833 0.312 9.678 0.205 9.54 C 0.113 9.421 -0.103 9.109 0.058 8.731 L 0.09 8.665 C 0.26 8.353 0.59 8.292 0.729 8.273 C 0.902 8.249 1.128 8.25 1.347 8.25 L 7.168 8.25 C 9.852 8.25 12.001 6.137 12.001 3.562 Z" fill="rgb(20, 27, 52)" height="10.874804950469052px" id="BI3vWa3K1" transform="translate(3.936 5.438)" width="13.126274263727641px"/></svg>